<?xml version="1.0" encoding="UTF-8" standalone="no"?>
<!-- Created with Inkscape (http://www.inkscape.org/) -->

<svg
   xmlns:dc="http://purl.org/dc/elements/1.1/"
   xmlns:cc="http://creativecommons.org/ns#"
   xmlns:rdf="http://www.w3.org/1999/02/22-rdf-syntax-ns#"
   xmlns:svg="http://www.w3.org/2000/svg"
   xmlns="http://www.w3.org/2000/svg"
   xmlns:sodipodi="http://sodipodi.sourceforge.net/DTD/sodipodi-0.dtd"
   xmlns:inkscape="http://www.inkscape.org/namespaces/inkscape"
   width="117.6479mm"
   height="431.99472mm"
   viewBox="0 0 117.6479 431.99472"
   version="1.1"
   id="svg837"
   inkscape:version="0.92.2 (5c3e80d, 2017-08-06)"
   sodipodi:docname="b-inksape.svg">
  <defs
     id="defs831" />
  <sodipodi:namedview
     id="base"
     pagecolor="#ffffff"
     bordercolor="#666666"
     borderopacity="1.0"
     inkscape:pageopacity="0.0"
     inkscape:pageshadow="2"
     inkscape:zoom="0.49497475"
     inkscape:cx="352.598"
     inkscape:cy="788.11957"
     inkscape:document-units="mm"
     inkscape:current-layer="layer1"
     showgrid="false"
     fit-margin-top="0"
     fit-margin-left="0"
     fit-margin-right="0"
     fit-margin-bottom="0"
     inkscape:window-width="1920"
     inkscape:window-height="1003"
     inkscape:window-x="-9"
     inkscape:window-y="-9"
     inkscape:window-maximized="1" />
  <metadata
     id="metadata834">
    <rdf:RDF>
      <cc:Work
         rdf:about="">
        <dc:format>image/svg+xml</dc:format>
        <dc:type
           rdf:resource="http://purl.org/dc/dcmitype/StillImage" />
        <dc:title></dc:title>
      </cc:Work>
    </rdf:RDF>
  </metadata>
  <g
     inkscape:label="Layer 1"
     inkscape:groupmode="layer"
     id="layer1"
     transform="translate(-35.143814,75.895906)">
    <path
       style="fill:none;stroke:#000000;stroke-width:0.80000001;stroke-linecap:butt;stroke-linejoin:miter;stroke-miterlimit:4;stroke-dasharray:none;stroke-opacity:1"
       d="M 87.690475,137.49405 C 73.200436,129.5187 13.982229,41.300553 43.845239,26.369047 48.184765,24.199284 73.095548,3.4586439 85.422617,15.785714 c 9.896594,9.896594 9.827382,54.817326 9.827382,40.821429 0,-21.86292 11.615201,-63.0640708 41.577381,-43.089286 C 177.43108,40.58699 93.816918,172.43626 85.422617,127.66667"
       id="path1382"
       inkscape:connector-curvature="0" />
    <path
       style="fill:none;stroke:#000000;stroke-width:0.80000001;stroke-linecap:butt;stroke-linejoin:miter;stroke-miterlimit:4;stroke-dasharray:none;stroke-opacity:1"
       d="m 87.690475,137.49405 c -21.197012,29.74258 37.747065,-11.61449 0,0"
       id="path1384"
       inkscape:connector-curvature="0" />
    <path
       style="fill:none;stroke:#000000;stroke-width:0.80000001;stroke-linecap:butt;stroke-linejoin:miter;stroke-miterlimit:4;stroke-dasharray:none;stroke-opacity:1"
       d="M 87.690475,137.49405 C 152.3179,213.67847 81.75228,269.48733 112.6369,355.96427"
       id="path1392"
       inkscape:connector-curvature="0" />
    <path
       style="fill:none;stroke:#000000;stroke-width:0.80000001;stroke-linecap:butt;stroke-linejoin:miter;stroke-miterlimit:4;stroke-dasharray:none;stroke-opacity:1"
       d="M 67.657738,68.324404 C 59.734283,68.719503 55.484159,64.466303 50.648809,59.630952 47.885595,56.867739 48.358115,37.73117 51.026784,35.062498 55.616509,30.472776 74.986736,25.382571 80.886905,31.282738 92.62226,43.018096 89.246719,77.576825 67.657738,68.324404 Z"
       id="path1402"
       inkscape:connector-curvature="0" />
    <path
       style="fill:none;stroke:#000000;stroke-width:0.80000001;stroke-linecap:butt;stroke-linejoin:miter;stroke-miterlimit:4;stroke-dasharray:none;stroke-opacity:1"
       d="m 121.70833,63.410713 c -4.51375,-1.732259 -7.76607,-4.856549 -12.47321,-6.425594 -9.376394,-3.125465 -2.60759,-26.534835 -0.75595,-30.238096 1.24391,-2.487822 22.45963,-3.42175 25.3244,-1.511905 22.89457,15.263049 6.4957,33.527861 -12.09524,38.175595 z"
       id="path1412"
       inkscape:connector-curvature="0" />
    <ellipse
       style="fill:#000000;stroke-width:0.57964247"
       id="pupil"
       cx="120.95239"
       cy="55.518414"
       rx="16.986305"
       ry="15.708653" />
    <path
       inkscape:connector-curvature="0"
       style="fill:#ffffff;stroke-width:0.53222358px"
       id="pupil-detail"
       d="m 126.51915,43.936381 c 3.49535,1.364399 7.96972,5.978077 8.49777,9.451109 1.78374,11.733713 -10.66903,-5.142161 -15.89774,-4.347262 -2.92604,0.4448 5.66774,-2.574011 7.39997,-5.103847 z" />
    <ellipse
       style="fill:#000000;stroke-width:0.57964247"
       id="pupil-5"
       cx="68.035713"
       cy="58.497025"
       rx="16.986305"
       ry="15.708653" />
    <path
       inkscape:connector-curvature="0"
       style="fill:#ffffff;stroke-width:0.53222358px"
       id="pupil-detail-3"
       d="m 73.602473,46.914992 c 3.49535,1.364399 7.96972,5.978077 8.49777,9.451109 1.78374,11.733713 -10.66903,-5.142161 -15.89774,-4.347262 -2.92604,0.4448 5.66774,-2.574011 7.39997,-5.103847 z" />
    <path
       style="opacity:1;fill:#ffccff;fill-opacity:1;fill-rule:nonzero;stroke:#fd35a2;stroke-width:4.31945992;stroke-miterlimit:4;stroke-dasharray:none;stroke-dashoffset:0;stroke-opacity:0.79607843"
       d="M 321.98704,509.76305 C 297.90761,489.74758 252.2138,429.31469 217.77607,371.93761 157.34466,271.25219 128.66733,187.32021 138.63279,140.30335 c 4.06708,-19.1884 10.35206,-27.1076 33.55131,-42.275329 58.61175,-38.320503 81.42371,-48.751371 109.38733,-50.017815 12.14281,-0.549936 15.49583,-0.189608 22.35298,2.402132 10.05536,3.800532 19.77318,12.222837 25.35045,21.970901 12.3716,21.623284 22.45298,71.094511 27.24921,133.716901 0.80722,10.53938 1.74817,19.44304 2.09103,19.78591 2.32634,2.32633 3.67061,-2.83344 3.67061,-14.08906 0,-40.35529 11.79945,-91.35768 28.7865,-124.427998 12.98419,-25.277543 27.14823,-40.342396 46.4163,-49.368332 7.58073,-3.55111 9.84813,-3.913225 24.08292,-3.846163 13.28846,0.0626 17.19096,0.637371 25.28008,3.723294 27.05663,10.321845 46.61648,26.553154 56.68558,47.03929 10.16447,20.680189 12.07692,30.559599 12.14421,62.734809 0.0763,36.52206 -4.36443,61.90337 -18.58589,106.2275 -27.44812,85.54782 -85.97084,185.5103 -136.35564,232.90872 -17.3741,16.3443 -26.04936,21.5628 -39.40034,23.70083 -6.15812,0.98615 -12.8486,2.09293 -14.86774,2.4595 -7.23596,1.31363 -16.3171,-9.76043 -20.00095,-24.39027 -1.03053,-4.09265 -2.46385,-6.62056 -3.75384,-6.62056 -4.51001,0 3.14539,21.64628 10.23827,28.9496 l 4.888,5.03301 -3.43454,0.65656 c -2.58562,0.49427 -5.6559,-1.1899 -12.42159,-6.81373 z M 277.87006,277.80252 c 11.84968,-3.68803 21.39591,-10.1216 31.73343,-21.3864 16.37175,-17.84028 22.82941,-36.48991 22.82112,-65.90708 -0.0105,-37.23765 -13.86192,-69.61614 -34.01505,-79.51215 -7.98236,-3.91966 -8.9792,-4.05458 -28.98099,-3.92245 -17.74594,0.11723 -22.73761,0.68664 -34.83385,3.97356 -15.37281,4.17726 -32.99699,11.75314 -40.29946,17.32301 -8.65028,6.59789 -12.91549,29.74257 -11.58272,62.85231 0.86183,21.41037 3.3583,32.81132 8.13037,37.12997 1.57926,1.42922 2.87138,3.4391 2.87138,4.46642 0,1.02733 1.34022,5.44993 2.97826,9.828 3.47998,9.30105 15.65646,23.24644 25.16153,28.81678 15.56306,9.12056 38.67393,11.73549 56.01598,6.33803 z m 198.70137,-11.10918 c 11.45357,-3.13552 20.52476,-8.52402 28.44168,-16.895 8.59229,-9.08508 13.59312,-18.69736 15.94396,-30.6465 1.46966,-7.47008 2.82643,-10.174 7.5028,-14.9524 8.15732,-8.33529 16.40869,-21.5928 19.01133,-30.5456 1.48564,-5.11042 2.0717,-11.6502 1.74123,-19.43009 -0.6723,-15.82677 -7.01957,-28.98312 -20.53329,-42.56046 C 513.63867,96.552011 506.47253,92.275325 493,90.370316 c -20.91803,-2.957794 -69.99109,1.022109 -80.66559,6.542109 -4.78062,2.472157 -7.3402,8.424035 -12.86877,29.924295 -5.61067,21.81954 -7.21007,38.51524 -6.64703,69.3866 0.52066,28.5476 2.10963,35.97293 9.87723,46.15679 17.6077,23.08488 45.19612,32.16451 73.87559,24.31323 z"
       id="path2156"
       inkscape:connector-curvature="0"
       transform="scale(0.26458333)" />
    <path
       style="fill:none;stroke:#000000;stroke-width:0.565;stroke-linecap:butt;stroke-linejoin:miter;stroke-miterlimit:4;stroke-dasharray:none;stroke-opacity:1"
       d="m 40.065475,9.738095 c -0.848055,19.244919 16.66512,7.215713 13.607143,4.157738 -8.817997,-8.817996 -14.865318,12.85119 -10.961309,12.85119 13.34209,0 10.790052,-13.143537 17.008929,-16.252976 0.53312,-0.266561 3.184568,10.583334 6.425594,10.583334 3.126915,0 10.988226,-12.0683239 9.827382,-13.2291669 C 72.38815,4.2631494 59.567222,22.922269 76.35119,19.565476 c 7.382835,-1.476568 3.478305,-5.746163 7.181548,-9.449405 1.656178,-1.6561796 1.801014,9.827381 5.291667,9.827381 6.408904,0 7.742589,-8.888361 7.9375,-8.693452 0.705514,0.705514 -0.409943,18.29016 0.377975,17.76488 4.4558,-2.97053 1.605146,-6.234099 3.40179,-9.827381 0.17683,-0.353666 7.54068,0.19841 8.69345,-0.377976 1.37161,-0.685806 2.01034,-9.071428 -0.37798,-9.071428 -6.71076,0 -3.47977,12.651199 10.96131,3.023809 4.9161,-3.277396 -16.0629,-7.4968889 -2.26786,-12.09523751 8.01481,-2.67160159 2.44082,10.00033951 5.29167,12.85119051 3.2379,3.237901 11.59935,-2.503683 9.4494,-6.8035716 -1.34466,-2.6893295 -4.97911,4.4702926 -3.40178,6.0476186 2.32377,2.323775 7.82991,-5.1288768 9.07143,-2.645833 0.84799,1.695978 -0.36774,8.325719 -2.26786,6.425595 -4.28679,-4.286791 16.42385,-9.2543775 17.00893,-9.4494043"
       id="path2164"
       inkscape:connector-curvature="0" />
    <path
       style="opacity:1;fill:#ffffff;fill-opacity:1;fill-rule:nonzero;stroke:#fd35a2;stroke-width:4.31945992;stroke-miterlimit:4;stroke-dasharray:none;stroke-dashoffset:0;stroke-opacity:0"
       d="m 322.38128,223.07935 c -0.95189,-52.66032 -62.86477,-80.14357 -107.21038,-47.5909 -11.93272,8.75942 -22.58346,28.48595 -23.02643,42.64786 -0.13592,4.34567 -0.22556,4.27369 -2.38219,-1.91299 -1.69308,-4.85691 -2.26976,-12.71522 -2.35876,-32.14286 -0.14005,-30.56912 1.8215,-43.04169 7.84872,-49.90631 5.24462,-5.9733 22.96778,-14.1904 40.70446,-18.87207 18.52569,-4.88993 47.33635,-5.61932 58.08851,-1.47062 12.0453,4.64766 22.83429,19.96647 29.89191,42.44221 2.99392,9.53446 3.33444,13.23616 3.21491,34.94965 -0.10059,18.27061 -0.69612,25.87795 -2.40444,30.71429 l -2.27075,6.42857 -0.0956,-5.28683 z"
       id="path2158"
       inkscape:connector-curvature="0"
       transform="scale(0.26458333)" />
    <path
       style="opacity:1;fill:#ffffff;fill-opacity:1;fill-rule:nonzero;stroke:#fd35a2;stroke-width:4.31945992;stroke-miterlimit:4;stroke-dasharray:none;stroke-dashoffset:0;stroke-opacity:0"
       d="m 520.28968,197.53383 c -2.16179,-13.5191 -15.67239,-31.56087 -29.05994,-38.80601 -12.14693,-6.57374 -22.14815,-8.64513 -38.12884,-7.89701 -12.15726,0.56913 -15.87048,1.35258 -23.96236,5.05583 -10.63721,4.86813 -22.24231,14.83764 -28.66193,24.6224 l -4.21767,6.42857 0.76137,-15.71429 c 1.30426,-26.91927 10.82828,-65.83018 17.11637,-69.92989 5.09181,-3.319754 14.54011,-4.915678 39.57761,-6.685102 30.2515,-2.137903 45.85395,-0.607894 54.69173,5.363189 10.4559,7.064343 25.83671,23.598083 31.06598,33.394663 4.70836,8.8207 4.95657,10.00222 4.95657,23.5934 0,13.24764 -0.34104,14.99402 -4.60314,23.57142 -4.40859,8.87222 -15.08987,22.83518 -17.46828,22.83518 -0.62416,0 -1.55452,-2.62456 -2.06747,-5.83235 z"
       id="path2160"
       inkscape:connector-curvature="0"
       transform="scale(0.26458333)" />
    <g
       id="g2202"
       transform="translate(3.0316773,22.496496)">
      <path
         inkscape:connector-curvature="0"
         id="path2166"
         d="m 54.050594,-6.136905 c 6.319253,2.40309 7.90942,-23.350281 10.205358,-30.238095 2.10884,-6.326525 6.356905,-29.069822 9.449403,-30.616071 0.21876,-0.109381 11.255745,-15.413484 8.693454,-12.85119 -1.728782,1.728782 -2.735151,-2.068513 -3.023812,-2.645834 -2.552361,-5.104722 2.605337,-19.429775 10.205358,-14.363094 11.023975,7.349316 -0.961819,15.119046 -10.205358,15.119046 -2.299139,0 4.504434,1.13393 6.803573,1.13393 5.725522,0 0.777534,-5.259297 7.559524,4.913691 5.154767,7.732143 6.794566,16.60394 9.827376,25.702379 2.26067,6.782007 -1.24728,4.271097 -0.37797,3.401786 0.32427,-0.324275 4.09732,10.742114 5.29166,11.339286 3.55991,1.779952 12.34623,20.537705 12.09524,20.78869 -1.43739,1.437391 -12.61692,-3.227892 -15.49702,-2.267857 -9.051204,3.017068 -16.224098,6.425595 -27.592262,6.425595 -9.486103,0 -18.819476,7.678525 -21.92262,3.023809"
         style="fill:none;stroke:#000000;stroke-width:0.96499997;stroke-linecap:butt;stroke-linejoin:miter;stroke-miterlimit:4;stroke-dasharray:none;stroke-opacity:1" />
      <path
         inkscape:connector-curvature="0"
         id="path2168"
         d="m 70.594278,-63.652908 c 3.96098,-0.323326 17.80034,8.280011 23.05654,3.02381 0.97161,-0.971611 -1.88988,-4.927778 -1.88988,-6.047619 0,-1.362813 1.3042,2.43813 2.26786,3.401785 2.85144,2.851439 3.51495,1.800196 5.291668,1.13393"
         style="fill:none;stroke:#000000;stroke-width:0.26458332px;stroke-linecap:butt;stroke-linejoin:miter;stroke-opacity:1" />
      <path
         inkscape:connector-curvature="0"
         id="path2170"
         d="m 66.814508,-46.266003 c 0.19932,-0.308251 -3.24961,1.210016 -2.64583,1.511905 1.16289,0.581443 8.27991,7.595092 8.69345,7.181547 0.90207,-0.902068 11.61174,-8.148546 12.47322,-6.425595 0.52754,1.055092 -8.67119,9.071429 -0.75596,9.071429 3.1498,0 6.29961,0 9.44941,0 3.41957,0 5.695155,1.057389 6.803562,-2.267858 0.95788,-2.873613 -5.355092,-10.048086 -2.645818,-8.693452 4.350988,2.175499 5.027768,9.573696 12.095228,10.583333"
         style="fill:none;stroke:#000000;stroke-width:0.26458332px;stroke-linecap:butt;stroke-linejoin:miter;stroke-opacity:1" />
      <path
         inkscape:connector-curvature="0"
         id="path2178"
         d="m 80.033618,-83.033845 c -0.51914,-1.534073 -0.21374,-5.35273 0.60257,-7.534511 1.61815,-4.324893 3.97574,-6.570333 6.54525,-6.233893 1.60999,0.21081 4.30763,2.10101 5.52302,3.869918 2.46573,3.588689 -0.82234,7.865348 -7.65461,9.956035 -3.43147,1.050034 -4.64614,1.036098 -5.01623,-0.05755 z"
         style="opacity:1;fill:#99ff66;fill-opacity:1;fill-rule:nonzero;stroke:#fd35a2;stroke-width:1.37857139;stroke-miterlimit:4;stroke-dasharray:none;stroke-dashoffset:0;stroke-opacity:0" />
      <path
         inkscape:connector-curvature="0"
         id="path2180"
         d="m 89.558778,-35.219552 c -4.20177,-0.06994 -6.96576,-0.270534 -7.27605,-0.528049 -0.90863,-0.754103 -0.5242,-2.118902 1.38688,-4.923561 1.03798,-1.523322 1.88843,-2.982289 1.88988,-3.242147 0.008,-1.50275 -4.47709,0.327161 -10.09609,4.118823 l -2.79744,1.887695 -2.09846,-1.822083 c -1.15415,-1.002147 -2.43015,-2.085832 -2.83555,-2.40819 -0.72516,-0.57662 -0.71198,-0.686722 0.81438,-6.803571 1.95991,-7.854249 3.81111,-13.965978 4.23018,-13.965978 0.17798,0 2.91494,0.890529 6.08214,1.978954 5.38212,1.849593 5.99755,1.979305 9.41487,1.984372 3.15815,0.0047 3.80191,-0.104926 4.72471,-0.804458 0.85261,-0.646326 1.04688,-1.062632 0.96198,-2.061429 l -0.10638,-1.251548 0.86234,0.804987 c 1.12843,1.053393 2.66665,1.412533 3.694324,0.862544 0.452937,-0.242409 0.889984,-0.37428 0.971214,-0.293047 0.0812,0.08123 1.111494,3.328987 2.289484,7.217235 2.00129,6.605808 2.10105,7.114552 1.52082,7.755698 -0.75606,0.835442 -0.765,0.995559 -0.0931,1.667467 0.76076,0.760765 3.63866,7.905426 3.11994,7.745561 -0.23926,-0.07374 -1.57417,-1.655617 -2.96649,-3.51529 -2.73703,-3.655783 -4.525431,-5.460094 -5.411972,-5.460094 -0.82578,0 -0.72739,0.362453 1.139888,4.198973 0.935487,1.92207 1.700884,3.711626 1.700884,3.976791 0,1.700218 -1.776161,3.256144 -3.514052,3.078326 -0.45797,-0.04686 -3.88172,-0.135949 -7.60834,-0.197981 z"
         style="opacity:1;fill:#99ff66;fill-opacity:1;fill-rule:nonzero;stroke:#fd35a2;stroke-width:1.37899995;stroke-miterlimit:4;stroke-dasharray:none;stroke-dashoffset:0;stroke-opacity:0.9" />
      <path
         inkscape:connector-curvature="0"
         id="path2184"
         d="m 78.853058,-61.804462 c -3.17028,-1.046305 -5.76414,-2.075669 -5.76414,-2.287471 0,-0.211804 1.42011,-2.285436 3.1558,-4.608073 3.80806,-5.095809 7.42753,-10.379258 7.42753,-10.842194 0,-0.185748 0.81053,-0.241731 1.80117,-0.124404 1.1817,0.139956 2.26465,0.01966 3.14884,-0.349777 l 1.34768,-0.563097 1.07839,1.74938 c 4.01298,6.509888 5.15774,8.615029 6.58099,12.101978 1.719808,4.213522 1.688358,4.55962 -0.41542,4.571672 -1.2611,0.0072 -3.05638,-1.472118 -4.15179,-3.421136 -1.44523,-2.571446 -2.06951,-1.532435 -0.69641,1.159065 0.41578,0.814986 0.75596,1.93756 0.75596,2.494614 0,1.636765 -0.9247,2.016797 -4.91369,2.01944 -3.29989,0.0021 -4.05772,-0.151728 -9.35491,-1.899997 z"
         style="opacity:1;fill:#6666cc;fill-opacity:1;fill-rule:nonzero;stroke:#fd35a2;stroke-width:1.96999991;stroke-miterlimit:4;stroke-dasharray:none;stroke-dashoffset:0;stroke-opacity:0.675" />
      <path
         inkscape:connector-curvature="0"
         id="path2182"
         d="m 60.627408,-10.143453 c -0.37412,-1.133625 -0.3219,-1.863271 0.32027,-4.474746 0.42201,-1.716143 1.28205,-6.096822 1.91121,-9.734843 0.62915,-3.638021 1.76625,-9.039502 2.52687,-12.003292 1.23101,-4.796672 1.44984,-5.337154 1.99172,-4.919459 0.33482,0.258087 1.63356,1.351998 2.8861,2.430912 l 2.27733,1.961663 3.62213,-2.338623 c 3.91995,-2.530906 7.37463,-4.290579 7.72859,-3.936624 0.12187,0.121867 -0.48008,1.383857 -1.33765,2.804423 -1.82882,3.029417 -1.93147,4.562764 -0.35574,5.314042 0.66253,0.315879 3.59676,0.501511 9.00337,0.569593 l 8.020528,0.100996 1.107484,-1.234386 c 1.42605,-1.589428 1.39472,-2.440203 -0.22036,-5.984268 -0.730324,-1.602595 -1.275351,-2.966318 -1.211171,-3.030496 0.0642,-0.06418 1.543991,1.662837 3.288491,3.837809 1.7445,2.174973 3.32368,3.954496 3.50928,3.954496 0.5318,0 4.54203,4.169379 5.81677,6.047619 0.63491,0.935491 1.88414,3.036246 2.77608,4.668345 1.30985,2.396828 1.52025,3.031688 1.09413,3.301504 -0.29016,0.183728 -0.6816,0.336656 -0.86986,0.339839 -0.18827,0.0032 -0.91114,0.439667 -1.6064,0.969964 -1.7817,1.358969 -1.73654,2.847726 0.14008,4.617607 0.9425,0.888889 1.15999,1.251119 0.66146,1.10169 -1.93905,-0.581219 -6.00586,-1.391806 -6.98286,-1.391806 -0.5998,0 -3.86346,0.942229 -7.252587,2.093842 -6.130335,2.083073 -10.416245,3.285585 -13.390765,3.757096 -1.4764,0.234033 -1.57323,0.190784 -1.82577,-0.815409 -0.58173,-2.317788 -1.55907,-2.402423 -2.88922,-0.250198 -0.57411,0.928931 -0.98752,1.237171 -1.42506,1.062531 -0.33898,-0.135303 -1.65097,-0.421277 -2.91552,-0.635496 l -2.29918,-0.389491 0.59829,-1.66852 c 0.53032,-1.478971 0.53388,-1.709321 0.0313,-2.027674 -1.65269,-1.046921 -4.1874,0.165123 -6.34779,3.035371 -1.0306,1.369229 -1.79943,1.902475 -3.98469,2.763692 -4.1258,1.62599 -3.89579,1.620639 -4.39689,0.102297 z"
         style="opacity:1;fill:#6666cc;fill-opacity:1;fill-rule:nonzero;stroke:#fd35a2;stroke-width:1.96999991;stroke-miterlimit:4;stroke-dasharray:none;stroke-dashoffset:0;stroke-opacity:0.51499999" />
      <path
         transform="scale(0.26458333)"
         inkscape:connector-curvature="0"
         id="path2186"
         d="m 440.85714,-57.781291 c -5.45672,-1.525428 -14.28571,-11.109223 -14.28571,-15.507019 0,-2.854758 6.26073,-7.947661 10.73507,-8.732626 2.29249,-0.402189 3.95505,1.798422 8.79928,11.646975 3.285,6.678572 6.01935,12.625 6.07633,13.214286 0.13628,1.409354 -5.08502,1.122763 -11.32497,-0.621616 z"
         style="opacity:1;fill:#99ff66;fill-opacity:1;fill-rule:nonzero;stroke:#fd35a2;stroke-width:7.44566917;stroke-miterlimit:4;stroke-dasharray:none;stroke-dashoffset:0;stroke-opacity:0" />
      <path
         transform="scale(0.26458333)"
         inkscape:connector-curvature="0"
         id="path2188"
         d="m 220.65509,-31.756866 c 2.07542,-3.903455 4.01808,-6.314169 4.31704,-5.357143 1.06554,3.411065 4.94608,6.740048 7.85676,6.740048 1.62663,0 7.42576,-1.753058 12.88696,-3.895687 7.94377,-3.11663 11.83395,-5.830633 19.45292,-13.571428 6.84261,-6.952017 10.55362,-9.675742 13.18296,-9.675742 h 3.65949 l -2.65807,6.995469 -2.65807,6.995468 5.29532,1.097 5.29531,1.096999 -7.43758,1.172513 c -4.09067,0.644883 -17.42913,4.39613 -29.64101,8.336104 -12.21189,3.939974 -24.7059,7.16359 -27.76447,7.16359 h -5.56104 z"
         style="opacity:1;fill:#99ff66;fill-opacity:1;fill-rule:nonzero;stroke:#fd35a2;stroke-width:10.63667011;stroke-miterlimit:4;stroke-dasharray:none;stroke-dashoffset:0;stroke-opacity:0" />
      <path
         transform="scale(0.26458333)"
         inkscape:connector-curvature="0"
         id="path2190"
         d="m 310.11932,-43.906092 c 2.3777,-3.44048 3.28456,-4.540184 3.53634,-4.288395 0.1194,0.1194 0.50292,1.228757 0.85226,2.465237 0.34934,1.236481 0.74289,2.514136 0.87454,2.839235 0.27667,0.683208 -0.31216,0.846603 -4.37028,1.212719 l -2.59497,0.234113 z"
         style="opacity:1;fill:#99ff66;fill-opacity:1;fill-rule:nonzero;stroke:#fd35a2;stroke-width:2.65916753;stroke-miterlimit:4;stroke-dasharray:none;stroke-dashoffset:0;stroke-opacity:0" />
    </g>
    <path
       style="fill:none;stroke:#000000;stroke-width:0.565;stroke-linecap:butt;stroke-linejoin:miter;stroke-miterlimit:4;stroke-dasharray:none;stroke-opacity:0.21681417"
       d="m 51.850287,84.253455 c -1.267227,-0.616781 0.836165,-9.854615 3.474505,-7.216277 1.203804,1.203806 7.706709,13.972402 2.672694,12.294399 -3.684942,-1.228315 4.810853,-8.473528 4.810853,2.138156 0,1.622126 1.022236,13.347857 -2.939966,12.027127 -3.389373,-1.12979 -1.357574,-16.324667 3.474503,-11.49259 1.172446,1.172446 10.110378,20.42319 2.939966,16.83798 -2.782491,-1.39124 6.063017,-6.85746 8.552624,-5.61266 2.232784,1.11639 3.304768,13.84144 0.267272,12.82894 -4.637792,-1.54593 -5.133679,-7.54811 1.870884,-6.1472 4.606891,0.92138 8.057875,14.66004 4.810853,17.90706 -2.658788,2.65878 -3.971187,-10.27095 -1.069078,-8.8199 2.546207,1.27311 4.641543,13.74362 9.621702,10.42351 1.735225,-1.15681 3.714245,-9.4743 0.267269,-7.75081 -5.126482,2.56324 6.670802,4.27631 9.087165,4.27631 2.860647,0 3.216777,-0.80897 5.345387,-2.40543 11.87025,-8.90268 -6.535846,-7.47537 0.26727,-2.93996 8.36725,5.57817 12.74038,-15.26441 6.68174,-11.22532 -5.01763,3.34509 11.40429,2.761 14.96709,-0.80181 6.10287,-6.10286 -5.61265,-14.435014 -5.61265,-6.94901 0,4.73501 4.81085,-3.595489 4.81085,-7.483543 0,-3.958172 -1.67545,-1.834971 -2.6727,-1.336347 -0.26163,0.130818 4.15356,2.05501 5.87993,-0.534538 0.85431,-1.281464 -0.54022,-3.866883 0.26727,-5.078121 0.36029,-0.540441 2.0359,-2.507684 1.33635,-3.207235 -0.53705,-0.537046 -3.19169,3.505595 -2.6727,4.543581 2.54588,5.091764 13.30109,-9.01887 8.28536,-10.69078 -6.17654,-2.058845 -3.05777,4.602485 -1.87089,4.009043 1.14091,-0.570455 2.07738,-3.741774 0.80181,-3.741774 -4.99902,0 -9.08737,12.472715 -16.03617,17.105249 -4.62847,3.085647 -17.63979,-13.355257 -17.63979,0.53454 0,3.528433 11.98884,-0.916662 10.69078,-4.810853 -1.29564,-3.886927 -12.727427,-0.318023 -14.967093,0.80181 -2.407479,1.20374 -0.911268,5.418365 -3.207235,6.949008 -4.398988,2.93266 -10.291423,-3.540548 -6.147199,-5.612662 3.998169,-1.999083 7.427357,3.797965 4.543581,6.68174 -4.365553,4.365552 -19.520704,-1.326319 -13.630746,-7.216277 1.290209,-1.290209 3.744495,10.689869 1.33635,11.492589 -1.365433,0.45514 -3.210669,-2.80118 -4.009044,-1.60362 -1.219136,1.8287 1.392881,5.45846 1.870888,6.41447 1.33595,2.6719 4.145523,-3.34372 4.00904,-3.20723 -2.557584,2.55758 -1.651912,6.90071 0.267272,8.81989"
       id="path2204"
       inkscape:connector-curvature="0" />
    <path
       style="fill:none;stroke:#000000;stroke-width:0.565;stroke-linecap:butt;stroke-linejoin:miter;stroke-miterlimit:4;stroke-dasharray:none;stroke-opacity:1"
       d="m 88.824405,104.61012 c 2.595798,7.14747 20.367435,-2.06424 14.363095,-3.77977"
       id="path2238"
       inkscape:connector-curvature="0" />
    <path
       style="opacity:1;fill:#fe54b5;fill-opacity:1;fill-rule:nonzero;stroke:#000000;stroke-width:4.31422615;stroke-miterlimit:4;stroke-dasharray:none;stroke-dashoffset:0;stroke-opacity:0.21681417"
       d="m 316.52751,553.69969 c 0,-4.24488 5.059,-14.96306 11.60576,-24.58838 l 3.72452,-5.47596 8.71158,11.15424 c 4.79136,6.13484 8.38786,11.47741 7.99222,11.8724 -0.39564,0.39498 -5.39707,3.06729 -11.11428,5.93847 -12.94306,6.49999 -20.9198,6.91913 -20.9198,1.09923 z"
       id="path2240"
       inkscape:connector-curvature="0"
       transform="scale(0.26458333)" />
    <path
       style="opacity:1;fill:#fe54b5;fill-opacity:1;fill-rule:nonzero;stroke:#000000;stroke-width:4.31422615;stroke-miterlimit:4;stroke-dasharray:none;stroke-dashoffset:0;stroke-opacity:0.21681417"
       d="m 345.18931,532.58964 c -4.65231,-5.95679 -8.45875,-11.35345 -8.45875,-11.99259 0,-0.63913 5.02946,-1.16206 11.17657,-1.16206 6.14711,0 14.10206,-1.21713 17.67767,-2.70473 17.14524,-7.13312 14.4736,5.77252 -4.26779,20.61598 l -7.66896,6.07392 z"
       id="path2242"
       inkscape:connector-curvature="0"
       transform="scale(0.26458333)" />
  </g>
</svg>
