<?xml version="1.0" encoding="UTF-8"?>
<!-- Created with Inkscape (http://www.inkscape.org/) -->
<svg width="149.14mm" height="379.58mm" version="1.1" viewBox="0 0 149.14 379.58" xmlns="http://www.w3.org/2000/svg">
 <g transform="translate(-28.712 49.922)">
  <path d="m102.81 162.82c0.50592-30.435-79.631-75.778-54.807-113.01 1.75-2.6251-1.1997-7.9539 0.37798-10.583 2.233-3.7217 10.857-13.187 14.741-14.741 9.3633-3.7453 33.948 1.6812 36.664 9.8274 3.7985 11.396 7.5595 19.828 7.5595 34.018v-3.4018c0-3.791-0.75596-7.8882-0.75596-12.095 0-6.6123 1.2913-15.654 5.2917-19.655 11.376-11.376 28.852-15.749 39.31-5.2917 0.55363 0.55363 10.771 0.28262 12.473 1.1339 5.8246 2.9123 2.1356 26.468-0.37798 30.238-3.2133 4.82-2.638 13.093-6.4256 18.143-9.1502 12.2-19.555 32.078-31.75 38.176-1.1254 0.56269-16.849 41.796-22.301 47.247z" style="fill:none;stroke-width:.665;stroke:#000000"/>
  <path d="m75.595 86.089c-10.64 3.8834-12.302-11.649-16.631-18.143-10.768-16.152 14.791-22.158 25.702-18.521 19.937 6.6458 21.971 45.533-9.0714 36.664z" style="fill:none;stroke-width:1.465;stroke:#000000"/>
  <path d="m127 82.31c-3.9943-1.5376-9.7655-3.9721-10.961-7.5595-11.62-34.861 35.908-36.316 35.908-8.3155 0 4.1581 0.67943 6.8495-3.0238 9.0714-6.1413 3.6848-14.713 7.8336-21.923 6.8036z" style="fill:none;stroke-width:1.465;stroke:#000000"/>
  <path d="m64.634 51.315c2.1872-6.0858-0.5094-8.0689-3.4018-10.961" style="fill:none;stroke-width:.965;stroke:#000000"/>
  <path d="m73.705 49.048c9.0755-0.16455-1.0223-8.9039-1.1339-9.0714" style="fill:none;stroke-width:.965;stroke:#000000"/>
  <path transform="scale(.26458)" d="m300.57 327.35c-12.801-2.5738-14.351-2.6662-23.571-1.4054-15.76 2.1549-25.76-8.1515-39.441-40.649-4.7963-11.393-10.906-24.34-13.576-28.771-12.876-21.365-12.198-38.71 2.0152-51.524 5.012-4.5188 17.358-12.064 18.517-11.316 0.20466 0.13209 2.1332-0.66342 4.2857-1.7678 5.0579-2.5951 23.704-6.4141 31.056-6.3608 3.1429 0.0228 8.9286-0.40238 12.857-0.94476 9.0659-1.2517 25.672 2.1319 36.386 7.4135 4.7308 2.3323 12.209 8.2111 18.64 14.654 17.394 17.425 26.047 38.61 25.985 63.617-0.0396 15.921-3.7668 28.539-11.394 38.571-5.6264 7.4009-17.307 15.434-26.026 17.9-9.0763 2.5668-24.606 2.8198-35.734 0.58233z" style="fill:#ffffff;stroke-opacity:.21681;stroke-width:3.0501;stroke:#000000"/>
  <path d="m88.824 51.315c0.41412-5.3541 0.0057-8.3737-2.6458-10.583" style="fill:none;stroke-width:.965;stroke:#000000"/>
  <path d="m122.09 49.048c-4.2855-1.7521-1.6382-6.7608-1.1339-7.9375" style="fill:none;stroke-width:.965;stroke:#000000"/>
  <path d="m130.78 47.536c-0.0221-3.592-2.5895-11.215 2.2679-9.8274" style="fill:none;stroke-width:.965;stroke:#000000"/>
  <path d="m138.72 48.292c2.9997-6.511 3.5798-8.56 7.9375-7.9375" style="fill:none;stroke-width:.965;stroke:#000000"/>
  <path transform="scale(.26458)" d="m477 308.39c-16.93-6.2891-32.078-16.06-35.672-23.01-6.9278-13.397-10.036-45.502-5.907-61.011 4.6262-17.375 16.722-31.791 32.784-39.074 10.945-4.9626 24.021-7.6355 25.555-5.2239 0.7732 1.2151 1.0589 1.1804 1.0749-0.13075 0.0131-1.0652 1.9334-1.7857 4.7595-1.7857 5.4653 0 21.008 2.7059 23.12 4.0248 0.78571 0.49089 2.6457 1.0819 4.1333 1.3133 5.7886 0.90048 17.687 8.5954 25.965 16.792 14.872 14.726 21.249 33.371 20.367 59.555-0.57581 17.103-1.8775 19.138-18.234 28.514-31.707 18.175-61.997 25.961-77.946 20.036z" style="fill:#ffffff;stroke-width:0"/>
  <ellipse cx="129.83" cy="75.884" rx="12.927" ry="11.793" style="fill:#000000;stroke-width:.43814;stroke:#000000"/>
  <path d="m134.08 67.189c2.6601 1.0243 6.0653 4.488 6.4671 7.0954 1.3575 8.8091-8.1194-3.8605-12.099-3.2637-2.2268 0.33393 4.3133-1.9325 5.6316-3.8317z" style="fill:#ffffff;stroke-width:.4023px;stroke:#000000"/>
  <ellipse cx="80.509" cy="77.018" rx="12.927" ry="11.793" style="fill:#000000;stroke-width:.43814;stroke:#000000"/>
  <path d="m84.756 68.322c2.6601 1.0243 6.0653 4.488 6.4671 7.0954 1.3575 8.8091-8.1194-3.8605-12.099-3.2637-2.2268 0.33394 4.3133-1.9325 5.6316-3.8317z" style="fill:#ffffff;stroke-width:.4023px;stroke:#000000"/>
  <path transform="scale(.26458)" d="m389.88 604.43c-4.1946-20.42-11.406-37.385-24.302-57.169-16.671-25.575-34.682-47.682-87.147-106.97-51.27-57.934-77.49-93.003-94.012-125.74-13.615-26.977-18.582-45.085-18.609-67.832-0.0223-18.946 2.5839-29.346 12.049-48.08l7.3299-14.508-1.899-33.84 7.5692-9.9681c10.93-14.393 36.484-39.383 44.944-43.949 26.274-14.183 99.612-2.5684 128.34 20.326 8.2331 6.5611 9.937 9.8963 19.275 37.728 14.457 43.088 18.166 59.671 19.764 88.378 0.65794 11.818 1.5234 17.441 2.7464 17.846 2.3382 0.77427 2.3636-10.319 0.0933-40.75-2.7326-36.627 1.6829-67.338 12.204-84.88 9.103-15.178 37.672-35.106 62.685-43.724 12.105-4.1708 17.278-5.1641 29.679-5.6985 22.453-0.96765 38.396 3.9274 54.466 16.722l6.9155 5.5062 18.943 0.9869c26.556 1.3835 29.165 2.2132 32.991 10.492 2.852 6.1718 3.0884 8.8898 3.0059 34.556-0.10772 33.509-3.0984 50.819-12.029 69.623-3.3687 7.093-7.6129 20.041-10.687 32.604-5.7247 23.394-7.7136 27.955-19.274 44.202-4.4725 6.2857-16.385 23.643-26.472 38.571-10.087 14.929-23.19 33.571-29.118 41.429-14.644 19.41-36.501 41.611-48.571 49.337-6.7131 4.2965-10.758 8.0092-12.395 11.378-1.3368 2.75-11.924 27.179-23.527 54.286-24.122 56.355-36.202 82.845-45.251 99.236-7.8958 14.301-8.6452 15.065-9.7065 9.899zm-65.599-271.28c6.0174-1.9643 11.72-3.5714 12.673-3.5714 4.1457 0 19.541-9.1709 24.372-14.518 12.024-13.309 17.789-34.818 14.93-55.702-3.1308-22.866-11.523-40.034-27.246-55.736-10.832-10.817-10.962-11.035-10.277-17.143 1.4762-13.163-5.7328-34.044-11.753-34.044-3.0573 0-2.6368 2.1413 1.7106 8.7108 3.1951 4.8281 3.9384 7.7964 4.465 17.83l0.6318 12.037-7.8158-3.5782c-4.2987-1.968-13.058-4.3195-19.465-5.2256-10.862-1.536-11.649-1.8776-11.649-5.0532 0-7.9546-15.667-28.629-20.327-26.823-2.0838 0.80725-1.2279 2.4205 5.4772 10.324 8.1214 9.573 11.201 15.202 10.011 18.301-0.36813 0.95934-4.7337 2.1873-9.7012 2.7287-9.1018 0.9921-24.047 4.0168-28.675 5.8034-2.1995 0.84915-2.5-3e-3 -2.5-7.0907 0-9.7336-2.2387-15.223-9.6138-23.573-4.0285-4.5611-6.2728-6.0592-8.0533-5.376-2.0977 0.80495-1.4053 2.2246 4.6102 9.4529 7.7483 9.3105 9.5212 14.409 8.1621 23.472-0.78972 5.2663-1.647 6.3613-7.3467 9.385-16.943 8.988-24.901 20.582-24.901 36.276 0 8.8271 0.61016 10.724 8.0034 24.886 4.4019 8.4315 10.265 20.804 13.029 27.493 14.438 34.944 21.937 44.074 38.748 47.178 3.6565 0.67508 10.184 2.5341 14.505 4.1312 11.107 4.1051 24.27 3.9061 37.995-0.57434zm189.42-5.514c8.7833-4.2122 21.968-17.242 23.459-23.185 0.6355-2.532 3.9051-5.0427 12.16-9.3373 24.481-12.736 26.98-16.26 26.942-37.99-0.0294-16.572-2.6052-29.918-7.9804-41.35-5.1456-10.944-19.92-25.723-31.418-31.427l-8.7094-4.3211 4.8248-9.8664c5.8646-11.993 9.0199-14.866 16.324-14.866 4.6036 0 5.556-0.48976 5.556-2.8572 0-2.3502-0.9506-2.8562-5.3571-2.8518-8.8517 9e-3 -13.881 4.258-20.41 17.242-5.4975 10.934-6.0706 11.571-9.681 10.765-2.1107-0.47125-8.107-1.2686-13.325-1.7719l-9.4875-0.91509-0.85397-5.163c-0.46969-2.8396-0.86105-9.1021-0.86969-13.917-0.0166-9.2359 1.9577-12.758 6.2318-11.118 1.693 0.64969 2.3239 0.0746 2.3239-2.1182 0-2.3757-0.88157-3.01-4.1837-3.01-8.6579 0-11.12 6.3613-9.2047 23.787 1.4499 13.195 2.0187 12.252-8.4553 14.021-2.9783 0.50305-8.3166 2.1584-11.863 3.6785-5.9888 2.5671-6.6978 2.6001-9.9588 0.46339-4.6295-3.0334-5.7584-8.1762-3.5453-16.151 2.4932-8.9841 2.526-10.799 0.19531-10.799-2.8094 0-5.6037 8.561-5.7331 17.565-0.0891 6.2066 0.51913 8.1927 3.3878 11.061l3.4965 3.4965-7.6036 7.1911c-18.8 17.78-24.674 46.259-16.055 77.829 11.017 40.352 17.333 49.649 39.523 58.183 10.113 3.8894 29.736 2.784 40.272-2.2685z" style="fill:#ffccff;stroke-width:2.5663;stroke:#c934af"/>
  <path d="m129.65 26.369c1.0561-1.0892-4.0966-2.329-3.0238-3.4018 3.9967-3.9967 11.042-3.2329 16.253-4.5357 24.514-6.1286 36.943 26.396 34.018 46.869-2.8454 19.917-18.505 36.616-24.946 55.94-4.3222 12.967-2.9393 37.504-15.497 24.946" style="fill:none;stroke-width:1.065;stroke:#000000"/>
  <path d="m70.304 26.369c-3.9343 1.6962-9.4548-4.7841-13.229-2.2679-25.04 16.693-30.061 58.386-9.4494 78.997 2.6205 2.6205-8.5998-7.7535-6.8036 3.0238 1.296 7.7762 2.6836 16.14 3.7798 23.812 1.3241 9.269 5.9208 21.923 15.497 21.923" style="fill:none;stroke-width:1.065;stroke:#000000"/>
  <path d="m81.265 26.369c-2.299-4.4227-11.117-9.3384-15.875-11.717-13.313-6.6567-21.474 9.3078-25.324 17.009-3.2255 6.4511 5.7948 1.6395 4.1577 4.9137-1.0347 2.0693-5.2449 4.0486-6.4256 6.8036-7.3213 17.083-12.274 41.319-4.9137 59.72 7.0532 17.633 21.324 14.898 29.86 23.435 5.9383 5.9383 3.7393 21.842 7.1815 28.726" style="fill:none;stroke-width:1.065;stroke:#000000"/>
  <path d="m121.71 29.393c-3.5525-16.978 40.913-19.003 45.357-5.6696 0.99313 2.9794-0.26953 8.5324 1.1339 11.339 1.239 2.478 4.1748 3.453 4.9137 5.6696 0.53186 1.5956-2.2552 2.2615-3.0238 2.6458-2.8016 1.4008-0.40221 33.567 0.37798 35.908 2.5128 7.5384 7.8081 32.133 3.0238 39.31-5.8065 8.7098-14.347 26.634-22.301 33.262" style="fill:none;stroke-width:1.065;stroke:#000000"/>
  <path d="m110.37 86.089c3.647 1.8954 3.983 4.1537 0 5.2917" style="fill:none;stroke-width:.665;stroke:#000000"/>
  <path d="m93.945 106.44c0.89505-2.9577 3.749-3.0808 5.2118-4.5436 1.7059-1.7059 5.2434 2.5942 6.2808 2.94 0.7847 0.26156 6.0625-3.0379 6.2808-3.4745 0.97782-1.9556 6.0012 2.709 6.1472 2.8063 0.24392 0.16262 2.7919 0.14807 2.4054 0.53454-1.6438 1.6438-23.897 0.11784-26.326 1.7373z" style="fill:none;stroke-width:.665;stroke:#000000"/>
  <path d="m96.618 106.17c-2.1625 9.7739 10.657 17.005 17.773 9.889 2.185-2.185 1.9902-9.333 3.0736-10.958" style="fill:none;stroke-width:.665;stroke:#000000"/>
  <path d="m100.63 116.06c0.11313-1.4054 12.98-0.79447 13.898-0.40091" style="fill:none;stroke-width:.665;stroke:#000000"/>
  <path transform="scale(.26458)" d="m375.82 434.05c-3.98-4.2489-6.6389-8.7241-8.308-13.983-2.2356-7.044-2.2946-17.318-0.10617-18.489 0.70261-0.37602 12.338-0.69422 36.022-0.98512 19.241-0.23632 35.61-0.58664 36.374-0.77849 1.3179-0.33078 1.3743-0.27326 1.0908 1.1132-0.16444 0.8041-0.77391 4.4167-1.3544 8.028-2.4757 15.402-4.3548 23.185-6.1951 25.657-0.56938 0.76487-1.0996 0.78978-5.4292 0.25515-2.7531-0.33995-12.118-0.60648-21.971-0.62532-18.238-0.0349-23.325 0.41598-25.691 2.2769l-1.2206 0.96011z" style="fill:#ffffff"/>
  <path d="m103.16 159.92c-1.628 1.2764 6.1291-4.3655 6.9592-2.7053 1.736 3.472-2.9784 16.545-11.76 10.691-1.6611-1.1074 7.7154-4.1957 5.8799-6.949-1.9409-2.9113-12.108 1.9387-1.0793-1.0365z" style="fill:none;stroke-width:.665;stroke:#000000"/>
  <path transform="scale(.26458)" d="m379.89 635.81-5.6944-2.5619 11.25-8.494c7.9836-6.0277 11.25-9.8558 11.25-13.184 0-6.0751 8.6573-15.382 14.308-15.382 4.0106 0 4.3104 0.79337 3.389 8.968-2.5548 22.667-19.263 37.511-34.503 30.654z" style="fill:#ff00ff"/>
  <g transform="translate(-233.14 1.799)">
   <path d="m282.09 42.974c0.46886-25.034 34.562-3.826 41.842-11.105 6.2282-6.2282-37.78-78.387-43.298-67.352-3.7537 7.5074-1.6791 24.815-4.8108 34.21-5.5835 16.751-1.0686 33.677 6.2669 44.247z" style="fill:none;stroke-width:.665;stroke:#000000"/>
   <path d="m277.43-14.636c10.868 4.3699 14.954-4.2763 19.778-4.2763" style="fill:none;stroke-width:.665;stroke:#000000"/>
   <path d="m275.29 1.3999c12.509-2.0411 12.348-0.4274 17.105 9.0872 0.92136 1.8427 17.642-4.5467 18.709-6.4145" style="fill:none;stroke-width:.765;stroke:#000000"/>
   <path d="m281.7 23.851c1.5261-7.2262 3.4343 1.6036 3.7418 1.6036 15.473 0-14.665-14.711-3.7418-1.6036z" style="fill:none;stroke-width:.665;stroke:#000000"/>
   <path d="m299.34 23.049c-3.5697-9.709 7.3912-2.1118 0 0z" style="fill:none;stroke-width:.665;stroke:#000000"/>
   <path d="m309.77 21.98c-5.9771-7.9313 3.3908-7.8345 8.0181-3.2072 1.3337 1.3337-3.291 5.5515-4.2763 5.8799-7.557 2.519 2.0796-11.405-3.7418-2.6727z" style="fill:none;stroke-width:.665;stroke:#000000"/>
   <path d="m283.57-7.42c0.61245-0.452-1.4826-1.7977-0.8018-2.1382 1.6315-0.81576 27.464 5.3095 24.054 10.424-4.3998 6.5997-32.417-8.2854-23.252-8.2854z" style="fill:none;stroke-width:.665;stroke:#000000"/>
   <path d="m282.24-20.783c2.5126-17.034 10.46-8.717-1.6036 1.3363" style="fill:none;stroke-width:.665;stroke:#000000"/>
   <path transform="scale(.26458)" d="m1061.8 152.2c-19.061-32.73-28.332-69.525-26.69-105.94 0.5715-12.679 2.4558-26.783 4.7417-35.493l0.964-3.673 8.3258-1.2217c4.5792-0.67191 12.452-1.2569 17.495-1.2999 15.94-0.13608 19.88 2.9982 31.32 24.915 4.2482 8.1389 7.2538 12.781 8.3318 12.867 5.2873 0.42532 12.043-0.72548 22.093-3.7636 23.47-7.0946 48.789-18.712 48.789-22.387 0-1.5273-2.8503-2.3681-3.6487-1.0764-1.0852 1.756-24.121 12.347-35.747 16.435-10.903 3.8341-25.212 7.6147-28.789 7.6066-1.5762-4e-3 -3.5485-3.0055-8.9719-13.656-7.9022-15.518-13.227-21.431-21.345-23.704-4.5748-1.2809-25.131-0.87263-33.719 0.66964-2.1252 0.38165-3.1944 0.23989-2.8155-0.37327 2.91-4.7084 8.7674-38.056 8.7674-49.914v-4.7295l4.3802 1.3182c7.8728 2.3694 16.802 2.7946 24.536 1.1684 8.1014-1.7032 13.139-4.0562 27.114-12.664 5.3309-3.2835 11.269-6.2658 13.196-6.6273 2.0912-0.39231 3.5037-1.2497 3.5037-2.1268 0-3.4695-7.4733-1.0397-19.392 6.3047-4.8318 2.9775-11.878 6.8784-15.657 8.6687-6.4455 3.0529-7.5625 3.2551-17.984 3.2551-6.8416 0-12.621-0.53315-15.04-1.3874l-3.9285-1.3874 0.6823-13.765c1.8278-36.875 5.8046-59.728 11.36-65.283 11-11 57.834 43.822 104.85 122.73 40.317 67.665 62.202 120.17 54.608 131.01-4.282 6.1134-20.935 7.4428-43.438 3.4676-39.825-7.0351-47.572-8.2104-58.084-8.8106-20.105-1.1482-33.414 2.1804-42.718 10.684-6.9194 6.3238-10.596 13.221-12.769 23.951l-1.7506 8.6469zm28.716-55.477c12.427-3.4514 7.5061-14.184-10.538-22.983-24.291-11.845-33.587-4.9571-19.148 14.188 1.9903 2.639 3.9307 4.7982 4.3119 4.7982s0.9853-1.2501 1.3425-2.7779c0.99-4.2351 2.758-8.3338 3.5948-8.3338 0.7791 0 6.0763 11.162 6.0763 12.804 0 3.2632 6.9143 4.3729 14.361 2.3049zm97.821-3.8611c7.6841-4.9528 15.098-14.462 15.098-19.365 0-3.626-5.3041-8.3232-14.094-12.482-5.6369-2.6666-7.7829-3.1296-14.528-3.1341-7.5029-0.0051-8.0464 0.14851-10.465 2.9576-2.1678 2.5179-2.4807 3.6946-2.083 7.833 0.4919 5.1193 6.7827 16.712 8.805 16.226 0.5818-0.13993 1.05 1.4011 1.05 3.456 0 5.0968 2.3474 7.4031 7.535 7.4031 2.8951 0 5.5802-0.89521 8.6822-2.8947zm-51.566-6.2c4.5488-2.3206 6.0545-4.5893 6.0545-9.1227 0-4.3249-5.6336-10.067-9.8768-10.067-5.6545 0-7.3942 5.5132-4.7328 14.998 1.9401 6.9143 2.5918 7.2336 8.5551 4.1913zm16.848-76.833c5.1915-1.9615 8.3995-5.9333 8.3995-10.399 0-3.4207-0.6471-4.6432-4.3113-8.1448-2.3712-2.266-7.1219-5.6121-10.557-7.4359-19.386-10.292-63.294-22.363-78.318-21.531-2.225 0.12319-2.3548 3.8358-0.2167 6.1984 1.4206 1.5698 1.3001 1.7641-1.434 2.3109-3.9779 0.79558-5.0178 4.0884-2.4066 7.6199 7.1118 9.6182 38.479 25.122 62.394 30.839 7.2487 1.7329 22.474 2.0453 26.451 0.54281zm-78.428-95.534c7.3009-9.1875 11.232-17.35 11.425-23.723 0.1794-5.9301-1.864-8.5601-5.8697-7.5547-5.0901 1.2776-10.781 13.281-14.177 29.901-1.1969 5.858-2.1511 8.0693-4.2074 9.7507-1.7706 1.4478-2.4417 2.742-2.0079 3.8724 0.5631 1.4674 1.2204 1.2474 4.8407-1.62 2.304-1.8248 6.8027-6.6067 9.997-10.626z" style="fill:#ccccff"/>
   <path d="m270.74-35.483c2.7293-1.9609 12.068 2.3648 14.433 0 4.7226-4.7226-7.2304-18.428-10.156-15.502-7.123 7.123 5.7838 11.729-8.5526 17.105" style="fill:none;stroke-width:.665;stroke:#000000"/>
   <path d="m277.08-35.973c-2.058-0.33089-3.6711-0.83961-3.5848-1.1305 0.7003-2.3591 0.73158-3.5499 0.16521-6.292-0.58211-2.8182-0.5443-3.3464 0.36526-5.1047 1.4557-2.8139 2.7723-2.7851 5.8876 0.12888 4.7152 4.4105 7.0567 10.649 4.6558 12.405-1.1501 0.84098-2.2249 0.84007-7.4891-0.0063z" style="fill:#ff00ff"/>
   <path transform="scale(.26458)" d="m1129.7 6.3011c-20.114-4.3611-47.426-16.634-58.288-26.192-4.9847-4.3863-5.2393-6.5795-0.7638-6.5795 3.2339 0 4.0988-2.386 2.0168-5.5636-1.5916-2.429-1.5688-2.5173 0.6465-2.5096 4.0863 0.01426 25.713 4.8517 38.123 8.5275 28.599 8.4704 47.51 18.688 47.51 25.669 0 2.2328-3.5921 5.706-7.3893 7.1447-3.8399 1.4549-13.912 1.2263-21.855-0.49603z" style="fill:#deffff"/>
   <path transform="scale(.26458)" d="m1131.7 82.055c-1.6152-4.2483-1.2322-10.509 0.6879-11.246 1.8899-0.72521 7.4183 4.7416 7.4183 7.3356 0 1.6127-4.6873 6.5018-6.2334 6.5018-0.4882 0-1.331-1.166-1.8728-2.5911z" style="fill:#ff00ff"/>
   <path transform="scale(.26458)" d="m1176.1 91.139c-1.3694-1.6501-0.8629-5.1688 2.2024-15.3 0.7091-2.3437 0.9328-4.6166 0.497-5.0508-0.7656-0.76298-1.6846 0.16519-6.3303 6.394l-2.1765 2.9181-2.7642-5.9578c-2.1556-4.6462-2.5623-6.5317-1.8473-8.5648 1.3326-3.7894 5.0068-5.356 10.985-4.6839 5.8922 0.6625 18.181 6.3503 21.613 10.003l2.379 2.5323-2.6362 4.4983c-2.8463 4.857-10.82 12.448-14.603 13.901-3.447 1.3244-5.8337 1.0994-7.3187-0.68997z" style="fill:#ffffff"/>
   <path transform="scale(.26458)" d="m1079.5 93.068c-2.7479-7.6901-6.4575-14.361-8.3134-14.95-2.7694-0.87896-3.7887-0.16186-6.0584 4.2621l-1.8797 3.6639-3.1662-5.4972c-4.3252-7.5095-3.9442-8.5538 3.0713-8.4181 4.4146 0.08541 7.5348 1.0169 14.18 4.2331 8.395 4.0634 16.968 10.994 16.968 13.716 0 1.6389-3.8427 3.2744-9.8468 4.1911-3.6036 0.55016-4.3972 0.35777-4.9542-1.2011z" style="fill:#ffffff"/>
   <path transform="scale(.26458)" d="m1070.1-86.899c0-3.4878 4.6123-16.933 7.4981-21.857 3.3817-5.7705 5.6339-6.0538 5.6339-0.70852 0 4.515-4.3613 13.735-9.5809 20.254-2.876 3.5922-3.5511 4.0315-3.5511 2.3113z" style="fill:#ffffff"/>
  </g>
  <path d="m100.51 168.22c12.34 5.7887 33.51 63.707 18.688 78.529-9.3754 9.3754-19.976 25.718-24.589 39.556-4.9335 14.8 11.574 30.768 13.363 43.298" style="fill:none;stroke-width:.665;stroke:#000000"/>
 </g>
</svg>
