<svg width="199.7mm" height="218.76mm" version="1.1" viewBox="0 0 199.7 218.76" xmlns="http://www.w3.org/2000/svg" xmlns:xlink="http://www.w3.org/1999/xlink">
 <defs>
  <linearGradient id="linearGradient829" x1="92.982" x2="232.08" y1="148.08" y2="184.36" gradientUnits="userSpaceOnUse">
   <stop style="stop-color:#fd35a2;stop-opacity:.79608" offset="0"/>
   <stop style="stop-color:#ffccff;stop-opacity:0" offset="1"/>
  </linearGradient>
 </defs>
 <g transform="translate(-9.2878 -44.216)">
  <path d="m103.57 261.47c-19.413-12.776-23.871-42.609-36.286-61.232-11.625-17.437-69.299-93.733-55.185-114.9 11.77-17.655 59.928-46.982 81.643-32.506 13.877 9.2511 12.851 38.804 12.851 54.429v18.899c0 1.7818 0.75596 7.0735 0.75596 5.2917 0-8.2342-6.2639-26.512-2.2679-32.506 5.1649-7.7473 5.0763-16.2 9.0714-24.19 2.3809-4.7618 14.134-10.934 18.143-13.607 21.721-14.481 33.444-27.032 58.208-2.2679 6.582 6.582 8.913 17.905 15.119 27.214 11.341 17.011-14.988 75.465-24.946 85.423-17.941 17.941-89.549 58.854-77.107 89.958z" style="fill:url(#linearGradient829);stroke-width:1.165;stroke:#000000"/>
 </g>
</svg>
